<svg width="202" height="129" viewBox="0 0 202 129" fill="none" xmlns="http://www.w3.org/2000/svg">
<path d="M8.57999 125.174L6.52165 106.825L8.89109 105.457L23.7528 116.414L21.0508 117.974L17.547 115.313L10.6673 119.285L11.1989 123.662L8.57999 125.174ZM10.2946 116.48L15.3037 113.588L9.4288 109.22L10.2946 116.48ZM29.0386 113.5L14.5303 102.339L17.357 100.707L28.1986 109.357L26.1073 95.6553L28.8717 94.0593L31.2834 112.204L29.0386 113.5ZM39.7658 107.169L31.3658 92.6193L42.153 86.3913L43.473 88.6776L35.2423 93.4296L37.4263 97.2124L44.7217 93.0004L46.0417 95.2867L38.7463 99.4987L41.0023 103.406L49.337 98.5942L50.657 100.881L39.7658 107.169ZM53.6899 99.1295L45.2899 84.5803L51.7747 80.8363C53.4652 79.8603 55.0325 79.5189 56.4766 79.8121C57.9127 80.0915 59.0387 80.9379 59.8547 82.3512C60.5187 83.5013 60.7549 84.6305 60.5634 85.7387C60.3639 86.8331 59.8186 87.8407 58.9277 88.7616L66.036 92.0015L63.0222 93.7415L56.4777 90.758L53.3184 92.582L56.2464 97.6535L53.6899 99.1295ZM52.0104 90.3165L55.7516 88.1565C56.6662 87.6285 57.2656 86.9868 57.55 86.2314C57.8344 85.476 57.7566 84.7172 57.3166 83.9551C56.8686 83.1792 56.2613 82.7354 55.4948 82.6237C54.7283 82.512 53.8669 82.7321 52.9109 83.2841L49.1904 85.4321L52.0104 90.3165ZM67.463 91.1776L65.4046 72.8285L67.7741 71.4605L82.6357 82.4176L79.9337 83.9776L76.43 81.317L69.5503 85.289L70.0818 89.6656L67.463 91.1776ZM69.1776 82.4835L74.1867 79.5915L68.3118 75.2238L69.1776 82.4835ZM91.2821 77.7582C89.0373 79.0542 86.8072 79.3995 84.5917 78.7941C82.3821 78.1669 80.6493 76.7656 79.3933 74.5901C78.1933 72.5117 77.8759 70.3301 78.4413 68.0453C79.0205 65.7525 80.3909 63.9821 82.5525 62.7341C83.7719 62.0301 84.9071 61.5964 85.9582 61.433C87.0013 61.2556 88.1098 61.2716 89.2836 61.4807L88.7784 64.3496C87.8647 64.1751 87.0241 64.1431 86.2565 64.2537C85.4949 64.3424 84.6775 64.6388 83.8046 65.1428C82.4744 65.9108 81.644 67.0645 81.3135 68.6041C80.9968 70.1356 81.2505 71.6149 82.0745 73.0421C82.9465 74.5525 84.1237 75.5356 85.6063 75.9914C87.0808 76.4333 88.5524 76.2303 90.0212 75.3823C91.3791 74.5983 92.338 73.5551 92.8978 72.2527L91.3258 69.5299L87.6054 71.6779L86.3214 69.454L92.5152 65.878L96.0432 71.9887C95.1554 74.515 93.5684 76.4382 91.2821 77.7582ZM100.536 72.0826L92.1365 57.5334L102.924 51.3054L104.244 53.5917L96.013 58.3437L98.197 62.1265L105.492 57.9145L106.812 60.2008L99.517 64.4128L101.773 68.3203L110.108 63.5083L111.428 65.7946L100.536 72.0826ZM121.349 63.9742C116.294 64.084 112.663 62.2267 110.455 58.4024C108.247 54.578 108.454 50.5047 111.077 46.1825L113.15 47.2301C112.222 49.0779 111.736 50.7808 111.694 52.3389C111.665 53.889 112.09 55.4262 112.97 56.9504C113.85 58.4746 114.969 59.6117 116.326 60.3618C117.696 61.1039 119.414 61.5348 121.478 61.6546L121.349 63.9742ZM123.615 58.7584L115.215 44.2092L121.741 40.4412C123.418 39.4732 124.934 39.1707 126.289 39.5338C127.316 39.8091 128.114 40.4386 128.682 41.4224C129.514 42.8635 129.445 44.3443 128.475 45.8648C130.777 45.404 132.428 46.0397 133.428 47.7717C134.164 49.0465 134.247 50.3103 133.677 51.5632C133.107 52.816 131.998 53.9184 130.349 54.8704L123.615 58.7584ZM121.27 48.8886L124.761 46.8726C125.607 46.3846 126.176 45.8343 126.469 45.2218C126.768 44.5874 126.725 43.9376 126.341 43.2725C126.005 42.6905 125.523 42.3682 124.896 42.3055C124.26 42.229 123.534 42.4267 122.716 42.8987L119.038 45.0227L121.27 48.8886ZM124.822 55.0409L129.062 52.5929C129.948 52.0809 130.534 51.5117 130.819 50.8853C131.118 50.2508 131.076 49.6011 130.692 48.936C129.94 47.6335 128.566 47.5582 126.571 48.7102L122.518 51.0502L124.822 55.0409ZM137.762 50.5902L136.598 48.5741L139.147 41.4213C139.677 39.9702 139.975 38.8555 140.043 38.0772C140.117 37.2771 139.97 36.5584 139.602 35.921C139.202 35.2282 138.665 34.8088 137.989 34.663C137.306 34.5033 136.625 34.6195 135.946 35.0115C135.308 35.3795 134.833 35.8847 134.52 36.5271C134.222 37.1615 133.994 38.0317 133.838 39.1378L131.214 38.7685C131.354 37.2834 131.679 36.0704 132.189 35.1294C132.705 34.1666 133.579 33.3292 134.813 32.6172C136.24 31.7932 137.629 31.527 138.98 31.8187C140.33 32.1103 141.386 32.9144 142.146 34.2307C142.474 34.7988 142.701 35.3515 142.826 35.8888C142.943 36.4122 142.958 37.0134 142.87 37.6926C142.787 38.3498 142.65 38.9924 142.459 39.6204C142.273 40.2265 141.992 41.0355 141.615 42.0473L140.062 46.2695L146.983 42.2735L148.279 44.5182L137.762 50.5902ZM153.685 38.4597L151.393 34.4898L147.402 36.7938L146.082 34.5075L150.073 32.2035L147.781 28.2337L150.151 26.8657L152.443 30.8355L156.433 28.5315L157.753 30.8178L153.763 33.1218L156.055 37.0917L153.685 38.4597ZM164.656 35.0631L156.256 20.5138L161.681 17.3818C163.953 16.0698 166.21 15.6907 168.451 16.2443C170.684 16.7841 172.405 18.1001 173.613 20.1925C174.813 22.2709 175.085 24.423 174.43 26.6486C173.789 28.8663 172.34 30.6271 170.081 31.9311L164.656 35.0631ZM165.869 31.2592L168.737 29.6032C170.247 28.7312 171.203 27.5699 171.603 26.1194C171.995 24.655 171.772 23.1954 170.932 21.7405C170.1 20.2994 168.951 19.3827 167.487 18.9903C166.023 18.5979 164.535 18.8377 163.025 19.7097L160.157 21.3657L165.869 31.2592ZM180.062 26.1684L178.898 24.1523L181.447 16.9994C181.977 15.5483 182.275 14.4336 182.343 13.6554C182.417 12.8553 182.27 12.1365 181.902 11.4991C181.502 10.8063 180.964 10.387 180.289 10.2411C179.606 10.0814 178.924 10.1976 178.245 10.5896C177.608 10.9576 177.133 11.4628 176.82 12.1052C176.522 12.7396 176.294 13.6099 176.138 14.716L173.514 14.3466C173.654 12.8615 173.979 11.6485 174.489 10.7075C175.005 9.7447 175.879 8.90728 177.113 8.19528C178.54 7.37128 179.929 7.10512 181.28 7.39679C182.63 7.68846 183.686 8.49248 184.446 9.80884C184.774 10.3769 185.001 10.9296 185.126 11.4669C185.243 11.9903 185.258 12.5916 185.17 13.2707C185.087 13.9279 184.95 14.5706 184.759 15.1985C184.573 15.8047 184.292 16.6136 183.915 17.6255L182.362 21.8476L189.283 17.8516L190.579 20.0964L180.062 26.1684ZM195.582 21.1156L193.508 20.0681C194.437 18.2203 194.915 16.5213 194.944 14.9712C194.987 13.4131 194.568 11.872 193.688 10.3478C192.808 8.82359 191.683 7.69045 190.312 6.94837C188.955 6.19829 187.245 5.76334 185.18 5.64354L185.31 3.32399C190.372 3.22802 194.003 5.08529 196.203 8.8958C198.403 12.7063 198.196 16.7796 195.582 21.1156Z" fill="#BFDBCC"/>
</svg>
