<svg width="162" height="113" viewBox="0 0 162 113" fill="none" xmlns="http://www.w3.org/2000/svg">
<g clip-path="url(#clip0_1_1818)">
<path d="M10.7632 54.6935C10.0587 54.5668 9.51216 54.1393 9.43297 53.5932C9.33265 52.8754 10.0767 52.2177 11.0908 52.1245C13.9081 51.8648 17.2798 52.5564 20.5371 53.2274C21.4534 53.4143 22.351 53.601 23.1876 53.7514C24.1695 53.9279 24.7356 54.6375 24.4559 55.3376C24.1763 56.0377 23.1561 56.4653 22.1742 56.2888C21.298 56.1313 20.3651 55.9383 19.4047 55.7435C16.6403 55.1737 13.5084 54.5316 11.4503 54.722C11.2153 54.7431 10.979 54.7322 10.7632 54.6935Z" fill="#97C3AB"/>
<path d="M8.57101 60.1946C7.87973 60.0703 7.3437 59.6637 7.24863 59.1337C7.11835 58.42 7.83513 57.7479 8.84426 57.6317C11.7318 57.3023 15.4484 58.0875 18.7206 58.7802C19.7247 58.9955 20.696 59.1986 21.5854 59.3585C22.5673 59.535 23.1333 60.2447 22.8526 60.9477C22.5718 61.6507 21.5527 62.0754 20.5708 61.8989C19.5889 61.7224 18.6188 61.5164 17.5619 61.2915C14.6636 60.6787 11.3726 59.9858 9.31239 60.217C9.05512 60.2468 8.80437 60.2365 8.57101 60.1946Z" fill="#97C3AB"/>
<path d="M134.19 102.567C133.564 102.399 133.178 101.736 133.324 101.05C133.476 100.34 134.139 99.8749 134.805 100.012C135.459 100.146 136.132 99.9626 136.862 99.4489C140.116 97.1581 142.907 89.5064 143.612 86.1081C144.806 80.3524 145.76 72.4332 143.504 67.3931C143.214 66.7488 143.483 65.9596 144.102 65.6347C144.722 65.3039 145.459 65.5677 145.746 66.2113C147.797 70.785 147.891 77.6425 146.027 86.5938C145.302 90.0815 142.323 98.7055 138.187 101.618C136.891 102.531 135.566 102.857 134.254 102.587C134.233 102.582 134.21 102.576 134.186 102.569L134.19 102.567Z" fill="#97C3AB"/>
<path d="M44.2156 79.1648C44.8534 79.2808 45.4831 78.8609 45.6409 78.1982C45.803 77.5121 45.3994 76.8258 44.7383 76.6664C44.0893 76.5091 43.5577 76.0652 43.1141 75.3082C41.1357 71.9322 41.8418 64.0505 42.6395 60.7748C43.9905 55.2266 46.4731 47.8824 50.6448 44.4111C51.1792 43.9679 51.2696 43.1631 50.8466 42.6182C50.4245 42.0674 49.6461 41.9892 49.1147 42.433C45.325 45.5813 42.3426 51.5544 40.2476 60.1858C39.4308 63.5487 38.4839 72.3617 40.9982 76.6534C41.7856 77.9983 42.8478 78.8406 44.1488 79.1557C44.1699 79.1595 44.194 79.1639 44.218 79.1683L44.2156 79.1648Z" fill="#97C3AB"/>
<path d="M55.2574 71.2199L66.3557 56.4908L68.6742 57.0104L72.4468 75.073L69.9879 74.5218L66.7409 57.9544L67.6776 58.1644L57.6695 71.7606L55.2574 71.2199ZM59.3376 67.8303L60.3898 66.0985L69.6169 68.1668L69.8761 70.1925L59.3376 67.8303ZM73.2998 75.2641L73.6568 73.6717L81.7747 68.7275C82.494 68.2985 83.0414 67.9046 83.4169 67.5461C83.8115 67.1754 84.0959 66.8211 84.2701 66.483C84.4633 66.1328 84.5985 65.7859 84.6755 65.4424C84.8644 64.5994 84.7165 63.8693 84.2317 63.2524C83.747 62.6354 82.9347 62.1992 81.795 61.9437C80.9207 61.7477 80.099 61.7193 79.3299 61.8585C78.5644 61.982 77.8557 62.2905 77.204 62.7839L75.9213 61.0452C76.7243 60.389 77.696 59.9673 78.8365 59.7802C79.9962 59.5811 81.2083 59.6232 82.4729 59.9067C83.6127 60.1621 84.5621 60.5717 85.3212 61.1354C86.0837 61.6834 86.6144 62.3517 86.9132 63.1401C87.2276 63.9321 87.2798 64.7964 87.0699 65.7332C86.9509 66.264 86.7634 66.7713 86.5074 67.255C86.2514 67.7387 85.8635 68.2257 85.3437 68.7159C84.8239 69.206 84.1166 69.728 83.2218 70.2817L75.9873 74.686L75.63 73.6466L85.5362 75.8671L85.0795 77.9046L73.2998 75.2641ZM98.0686 65.5176L94.4846 66.5836L94.5844 66.1386L97.3704 68.6323L96.3557 69.7577L93.6686 67.2615L93.963 67.1553L93.2042 70.65L91.7991 70.335L92.6047 66.8508L92.8255 67.0725L89.33 68.1829L88.8928 66.7321L92.5001 65.6714L92.4004 66.1164L89.5909 63.6174L90.6109 62.4686L93.2927 64.9882L92.9984 65.0944L93.7571 61.5998L95.1622 61.9147L94.3567 65.3989L94.1358 65.1772L97.6365 64.0434L98.0686 65.5176ZM97.7166 80.7371L101.391 64.3439L108.745 65.9922C110.634 66.4157 112 67.1236 112.843 68.1161C113.69 69.093 113.967 70.2372 113.673 71.5486C113.473 72.4385 113.102 73.1424 112.56 73.6604C112.033 74.1818 111.397 74.5311 110.652 74.7085C109.908 74.8859 109.145 74.8871 108.364 74.7121L108.943 74.1041C109.88 74.314 110.671 74.6634 111.315 75.1523C111.96 75.6411 112.421 76.2529 112.699 76.9875C112.981 77.7064 113.017 78.5343 112.807 79.4711C112.492 80.8762 111.716 81.8501 110.479 82.3928C109.262 82.9233 107.615 82.9559 105.538 82.4904L97.7166 80.7371ZM100.484 79.3652L105.87 80.5725C107.166 80.863 108.206 80.8666 108.991 80.5834C109.776 80.3003 110.274 79.6903 110.484 78.7535C110.697 77.8012 110.509 77.0294 109.92 76.4383C109.331 75.8472 108.389 75.4064 107.093 75.1159L101.496 73.8613L101.921 71.9644L106.933 73.0877C108.119 73.3537 109.09 73.3416 109.843 73.0514C110.597 72.7613 111.072 72.179 111.268 71.3047C111.464 70.4304 111.283 69.7012 110.725 69.1171C110.167 68.5329 109.295 68.1079 108.109 67.8419L103.308 66.7658L100.484 79.3652ZM113.848 84.3531L114.205 82.7606L122.323 77.8165C123.043 77.3874 123.59 76.9936 123.965 76.635C124.36 76.2644 124.644 75.91 124.819 75.5719C125.012 75.2217 125.147 74.8749 125.224 74.5314C125.413 73.6883 125.265 72.9583 124.78 72.3413C124.295 71.7243 123.483 71.2881 122.344 71.0326C121.469 70.8367 120.648 70.8083 119.878 70.9474C119.113 71.071 118.404 71.3794 117.753 71.8728L116.47 70.1342C117.273 69.4779 118.245 69.0562 119.385 68.8692C120.545 68.67 121.757 68.7121 123.021 68.9956C124.161 69.2511 125.111 69.6606 125.87 70.2243C126.632 70.7724 127.163 71.4406 127.462 72.2291C127.776 73.021 127.828 73.8854 127.618 74.8221C127.499 75.353 127.312 75.8602 127.056 76.3439C126.8 76.8277 126.412 77.3146 125.892 77.8048C125.372 78.295 124.665 78.8169 123.77 79.3706L116.536 83.7749L116.179 82.7356L126.085 84.9561L125.628 86.9935L113.848 84.3531Z" fill="#97C3AB"/>
</g>
<defs>
<clipPath id="clip0_1_1818">
<rect width="263.893" height="46.1478" fill="white" transform="translate(-93.0561) rotate(15)"/>
</clipPath>
</defs>
</svg>
