<svg width="125" height="52" viewBox="0 0 125 52" fill="none" xmlns="http://www.w3.org/2000/svg">
<path d="M6.44454 15.6463C3.91267 14.8984 2.26114 13.5 1.48997 11.451L3.71001 10.5009C4.4486 12.0954 5.6107 13.1269 7.19632 13.5952C7.95076 13.818 8.62193 13.8286 9.20982 13.6268C9.79771 13.4251 10.1729 13.0493 10.3353 12.4995C10.4561 12.0903 10.3791 11.6921 10.1041 11.3051C9.84573 10.909 9.29817 10.3858 8.46144 9.73547C7.44656 8.93522 6.73071 8.18158 6.31392 7.47456C5.89712 6.76754 5.81713 5.97926 6.07395 5.10973C6.4403 3.86937 7.23098 3.00459 8.44598 2.51538C9.66476 2.01339 11.0094 1.97956 12.48 2.41389C14.5515 3.02574 15.9964 4.18239 16.8146 5.88385L14.6892 7.00783C13.9427 5.67515 12.943 4.82375 11.6898 4.45362C10.9354 4.23079 10.2751 4.23041 9.70901 4.45248C9.15948 4.66555 8.81484 5.00865 8.6751 5.48178C8.55047 5.90376 8.62563 6.30828 8.90058 6.69535C9.1921 7.07341 9.78441 7.60983 10.6775 8.3046C11.6616 9.06795 12.3474 9.80575 12.7348 10.518C13.1388 11.2212 13.2105 12.014 12.9499 12.8963C12.5722 14.1751 11.7548 15.0598 10.4977 15.5504C9.25333 16.0449 7.90228 16.0768 6.44454 15.6463ZM19.2169 19.4395C17.6569 18.9788 16.5528 18.2217 15.9046 17.1683C15.2693 16.1186 15.1536 14.9097 15.5577 13.5415C15.7466 12.9021 16.0585 12.2226 16.4935 11.503L20.4637 4.98049L22.8229 5.67732L18.6605 12.4976C18.3891 12.9458 18.1798 13.4192 18.0325 13.9179C17.8021 14.6979 17.86 15.3962 18.2062 16.0129C18.5523 16.6295 19.1794 17.0719 20.0873 17.3401C22.0693 17.9255 23.7768 17.0396 25.2099 14.6823L29.517 7.65448L31.8763 8.35131L27.3656 15.7152C25.2323 19.1725 22.516 20.414 19.2169 19.4395ZM27.6367 21.697L35.2084 9.33546L37.606 10.0436L38.0708 17.0836L45.7003 12.4343L48.4048 13.2331L40.8331 25.5947L38.4355 24.8865L43.8689 16.0225L36.0916 20.6073L36.0149 20.5847L35.3988 13.5625L29.9959 22.3938L27.6367 21.697ZM47.9343 30.6534C46.1826 28.0645 45.6938 25.4593 46.4681 22.8379C47.0761 20.7792 48.2816 19.0985 50.0844 17.7958C51.9038 16.4841 54.1801 15.6966 56.9133 15.4334L57.2474 17.4089C54.9882 17.7149 53.1413 18.4137 51.7066 19.5053C50.272 20.597 49.3262 21.9164 48.8692 23.4637C48.3253 25.3051 48.6303 27.3554 49.7843 29.6148L47.9343 30.6534ZM51.4132 28.7196L64.94 18.0127L67.2034 18.6812L65.4919 32.8779L63.0751 32.164L63.5147 28.7695L57.1658 26.8943L53.9642 29.4731L51.4132 28.7196ZM59.2219 25.2285L63.8445 26.5938L64.5846 20.9107L59.2219 25.2285ZM68.8044 33.8562L75.0044 23.738L72.2607 23.6367L72.8229 21.5922L77.1332 21.6141L78.7636 22.0956L71.1444 34.5474L68.8044 33.8562ZM79.6531 34.85L81.7134 31.4753L78.0307 30.3876L79.2293 28.4477L82.912 29.5354L84.9531 26.1551L87.1589 26.8066L85.0986 30.1812L88.7814 31.269L87.5828 33.2089L83.9 32.1212L81.8398 35.4958L79.6531 34.85ZM87.5207 39.3842L95.0923 27.0227L100.233 28.541C101.652 28.9602 102.65 29.5817 103.227 30.4056C103.808 31.2166 103.957 32.1017 103.673 33.0607C103.409 33.9558 102.909 34.6144 102.172 35.0364C101.436 35.4585 100.577 35.6358 99.5961 35.5685C100.819 36.5134 101.239 37.6317 100.858 38.9232C100.499 40.138 99.7047 40.967 98.4754 41.4103C97.2462 41.8536 95.7365 41.8109 93.9463 41.2821L87.5207 39.3842ZM94.2075 32.9133L97.545 33.8991C98.4912 34.1786 99.2858 34.2186 99.9286 34.0192C100.571 33.8198 100.989 33.394 101.182 32.7418C101.48 31.7316 100.888 31.0075 99.4043 30.5694L96.2203 29.629L94.2075 32.9133ZM91.0153 38.1433L94.8898 39.2877C95.8361 39.5672 96.6325 39.6008 97.2791 39.3886C97.9385 39.1802 98.3645 38.7499 98.5571 38.0978C98.7044 37.599 98.6086 37.1467 98.2697 36.7408C97.9308 36.3348 97.397 36.0242 96.6681 35.8089L93.0813 34.7495L91.0153 38.1433ZM107.254 45.2126L108.949 42.4392L102.427 40.513L102.694 38.6939L114.835 32.7495L117.117 33.4237L112.283 41.3177L114.201 41.8842L113.111 43.6685L111.193 43.102L109.498 45.8754L107.254 45.2126ZM105.762 39.3915L110.039 40.6549L113.058 35.7283L105.762 39.3915ZM112.437 49.6422L112.103 47.6666C114.362 47.3607 116.209 46.6619 117.644 45.5703C119.078 44.4786 120.024 43.1591 120.481 41.6119C121.029 39.7577 120.715 37.7119 119.541 35.4743L121.416 34.4222C123.168 37.0111 123.656 39.6163 122.882 42.2377C122.274 44.2964 121.06 45.9816 119.241 47.2933C117.434 48.6088 115.166 49.3917 112.437 49.6422Z" fill="#BFDBCC"/>
</svg>
